<svg xmlns="http://www.w3.org/2000/svg" viewBox="0 0 900 560"><defs><linearGradient id="a" x1="0" x2="1"><stop stop-color="#dcebd9"/><stop offset="1" stop-color="#f7ead0"/></linearGradient></defs><rect width="900" height="560" fill="url(#a)"/><circle cx="730" cy="120" r="68" fill="#f3c96b"/><path d="M0 400 Q180 300 360 390 T900 350 V560 H0Z" fill="#5b8750"/><path d="M0 455 Q200 370 420 450 T900 420 V560 H0Z" fill="#386c43"/><g fill="#fff"><path d="M150 395 l30-80 30 80z"/><path d="M250 410 l28-75 30 75z"/><path d="M620 390 l30-80 30 80z"/></g><rect x="560" y="250" width="150" height="95" rx="8" fill="#fff" opacity=".85"/><path d="M585 265h100v58H585z" fill="#6b9b62"/><path d="M640 225v25M610 235l-20-20M670 235l20-20" stroke="#245b3b" stroke-width="8" stroke-linecap="round"/><text x="55" y="80" font-family="Arial" font-size="34" font-weight="700" fill="#173e29">SOLAR FARM</text><text x="55" y="116" font-family="Arial" font-size="20" fill="#52657a">Growing more with cleaner irrigation</text></svg>
